<?xml version="1.0" encoding="UTF-8"?>
<svg id="mcky-logo" data-name="mcky-logo" xmlns="http://www.w3.org/2000/svg" viewBox="0 0 101.12 117.14">
  <defs>
    <style>
      .cls-1 {
        fill: #fff;
        stroke-width: 0px;
      }
    </style>
  </defs>
  <path id="Path_5" data-name="Path 5" class="cls-1" d="M88.51,60.56l-12.97,21.79-12.97-21.79h-12.62l20.04,32.68-14.77,23.89h11.08l34.82-56.57h-12.61Z"/>
  <g id="Group_9" data-name="Group 9">
    <path id="Path_6" data-name="Path 6" class="cls-1" d="M11.07,18.35l17.46,25.62,17.45-25.7v39.28h10.98v-4.71c.91.7,1.86,1.34,2.85,1.92,4.44,2.55,9.5,3.85,14.62,3.75,3.74.04,7.45-.68,10.91-2.1,6.6-2.75,11.84-8.01,14.55-14.63l-10.27-3.72c-.88,2-2.1,3.83-3.6,5.42-1.45,1.54-3.18,2.79-5.09,3.68-1.99.91-4.16,1.36-6.36,1.33-3.14.06-6.23-.8-8.89-2.46-2.6-1.66-4.7-4.01-6.06-6.79-1.5-3.11-2.25-6.53-2.18-9.98-.07-3.44.66-6.84,2.14-9.94,1.34-2.76,3.41-5.09,5.98-6.75,4.54-2.79,10.15-3.24,15.08-1.21,1.93.83,3.68,2,5.17,3.48,1.52,1.5,2.76,3.27,3.64,5.21l10.27-3.8c-1.34-3.17-3.31-6.05-5.78-8.45-2.52-2.47-5.49-4.42-8.76-5.74C81.74.67,78.06-.03,74.36,0c-5.11-.1-10.15,1.2-14.58,3.76-.97.58-1.9,1.21-2.79,1.9V.98h-11.96l-16.48,24.41L12.04.98H0v56.57h11.07V18.35Z"/>
    <path id="Path_7" data-name="Path 7" class="cls-1" d="M46.15,60.56h-14.31l-20.94,22.4v-22.4H0v56.57h10.91v-18.88l4.17-4.46,18.3,23.34h13.66l-24.75-31.06,23.86-25.52Z"/>
  </g>
</svg>